<svg width="1440" height="842" viewBox="0 0 1440 842" fill="none" xmlns="http://www.w3.org/2000/svg">
<path d="M-139.41 -38L-139.41 1267M77.2659 -38L77.2658 1267M293.942 -38L293.942 1267M510.618 -38L510.618 1267M727.295 -38L727.295 1267M943.971 -38L943.971 1267M1160.65 -38L1160.65 1267M1377.32 -38L1377.32 1267M1594 -38L1594 1267M-140 1230.51H1593.41M-140 1025.2L1593.41 1025.2M-140 819.893L1593.41 819.893M-140 614.583L1593.41 614.583M-140 409.273L1593.41 409.273M-140 203.963L1593.41 203.964M-140 -1.34628L1593.41 -1.3462" stroke="url(#paint0_radial_4_319)" stroke-opacity="0.4"/>
<defs>
<radialGradient id="paint0_radial_4_319" cx="0" cy="0" r="1" gradientUnits="userSpaceOnUse" gradientTransform="translate(727 614.5) rotate(90) scale(652.5 867)">
<stop stop-color="white"/>
<stop offset="1" stop-color="white" stop-opacity="0"/>
</radialGradient>
</defs>
</svg>
